<mxfile host="65bd71144e" pages="20">
    <diagram name="myGov-DI" id="14M0Y8m746JbzcvmuOFG">
        <mxGraphModel dx="1504" dy="856" grid="1" gridSize="10" guides="1" tooltips="1" connect="1" arrows="1" fold="1" page="1" pageScale="1" pageWidth="1169" pageHeight="827" math="0" shadow="0">
            <root>
                <mxCell id="vFd7RE8p-yk9YDAPaiBI-0"/>
                <mxCell id="vFd7RE8p-yk9YDAPaiBI-1" parent="vFd7RE8p-yk9YDAPaiBI-0"/>
                <mxCell id="r6UPKWucfZyaXqO34wC3-5" value="myGov" style="swimlane;whiteSpace=wrap;html=1;fontSize=15;" parent="vFd7RE8p-yk9YDAPaiBI-1" vertex="1">
                    <mxGeometry x="25" y="25" width="400" height="600" as="geometry"/>
                </mxCell>
                <mxCell id="ahPHH8DRMbLQYW9S1QM9-4" style="edgeStyle=none;html=1;fontSize=12;" parent="r6UPKWucfZyaXqO34wC3-5" source="r6UPKWucfZyaXqO34wC3-7" target="ahPHH8DRMbLQYW9S1QM9-1" edge="1">
                    <mxGeometry relative="1" as="geometry"/>
                </mxCell>
                <mxCell id="r6UPKWucfZyaXqO34wC3-7" value="Update myGov Profile" style="rounded=1;whiteSpace=wrap;html=1;" parent="r6UPKWucfZyaXqO34wC3-5" vertex="1">
                    <mxGeometry x="95" y="60" width="200" height="45" as="geometry"/>
                </mxCell>
                <mxCell id="ahPHH8DRMbLQYW9S1QM9-27" value="NO" style="edgeStyle=elbowEdgeStyle;html=1;entryX=0.5;entryY=0;entryDx=0;entryDy=0;fontSize=10;" parent="r6UPKWucfZyaXqO34wC3-5" source="ahPHH8DRMbLQYW9S1QM9-1" target="ahPHH8DRMbLQYW9S1QM9-6" edge="1">
                    <mxGeometry relative="1" as="geometry"/>
                </mxCell>
                <mxCell id="ahPHH8DRMbLQYW9S1QM9-1" value="Is the myGov &lt;br style=&quot;font-size: 12px;&quot;&gt;account linked to the member serivce&amp;nbsp;" style="html=1;whiteSpace=wrap;aspect=fixed;shape=isoRectangle;fontSize=12;" parent="r6UPKWucfZyaXqO34wC3-5" vertex="1">
                    <mxGeometry x="120" y="128" width="150" height="90" as="geometry"/>
                </mxCell>
                <mxCell id="ahPHH8DRMbLQYW9S1QM9-13" style="edgeStyle=elbowEdgeStyle;html=1;entryX=0.009;entryY=0.478;entryDx=0;entryDy=0;entryPerimeter=0;fontSize=12;exitX=0;exitY=0.75;exitDx=0;exitDy=0;noJump=1;elbow=vertical;" parent="r6UPKWucfZyaXqO34wC3-5" source="ahPHH8DRMbLQYW9S1QM9-8" target="ahPHH8DRMbLQYW9S1QM9-1" edge="1">
                    <mxGeometry relative="1" as="geometry">
                        <Array as="points">
                            <mxPoint x="15" y="375"/>
                            <mxPoint x="235" y="585"/>
                            <mxPoint x="55" y="385"/>
                            <mxPoint x="121" y="605"/>
                        </Array>
                    </mxGeometry>
                </mxCell>
                <mxCell id="ahPHH8DRMbLQYW9S1QM9-8" value="Connect myGov Account to Digital Identity and update myGov Profile" style="rounded=1;whiteSpace=wrap;html=1;" parent="r6UPKWucfZyaXqO34wC3-5" vertex="1">
                    <mxGeometry x="205" y="515" width="150" height="60" as="geometry"/>
                </mxCell>
                <mxCell id="ahPHH8DRMbLQYW9S1QM9-12" style="edgeStyle=elbowEdgeStyle;html=1;fontSize=12;elbow=vertical;exitX=0.008;exitY=0.498;exitDx=0;exitDy=0;exitPerimeter=0;" parent="r6UPKWucfZyaXqO34wC3-5" source="ahPHH8DRMbLQYW9S1QM9-9" edge="1">
                    <mxGeometry relative="1" as="geometry">
                        <mxPoint x="295" y="437.5" as="sourcePoint"/>
                        <mxPoint x="105" y="485" as="targetPoint"/>
                        <Array as="points">
                            <mxPoint x="105" y="430"/>
                        </Array>
                    </mxGeometry>
                </mxCell>
                <mxCell id="ahPHH8DRMbLQYW9S1QM9-28" value="NO" style="edgeLabel;html=1;align=center;verticalAlign=middle;resizable=0;points=[];fontSize=10;" parent="ahPHH8DRMbLQYW9S1QM9-12" vertex="1" connectable="0">
                    <mxGeometry x="0.0372" y="-3" relative="1" as="geometry">
                        <mxPoint as="offset"/>
                    </mxGeometry>
                </mxCell>
                <mxCell id="ahPHH8DRMbLQYW9S1QM9-26" style="edgeStyle=elbowEdgeStyle;html=1;fontSize=10;exitX=0.995;exitY=0.487;exitDx=0;exitDy=0;exitPerimeter=0;" parent="r6UPKWucfZyaXqO34wC3-5" source="ahPHH8DRMbLQYW9S1QM9-9" target="ahPHH8DRMbLQYW9S1QM9-8" edge="1">
                    <mxGeometry relative="1" as="geometry">
                        <Array as="points">
                            <mxPoint x="315" y="465"/>
                        </Array>
                    </mxGeometry>
                </mxCell>
                <mxCell id="ahPHH8DRMbLQYW9S1QM9-29" value="YES" style="edgeLabel;html=1;align=center;verticalAlign=middle;resizable=0;points=[];fontSize=10;" parent="ahPHH8DRMbLQYW9S1QM9-26" vertex="1" connectable="0">
                    <mxGeometry x="0.3426" y="1" relative="1" as="geometry">
                        <mxPoint as="offset"/>
                    </mxGeometry>
                </mxCell>
                <mxCell id="ahPHH8DRMbLQYW9S1QM9-9" value="Does user have a &lt;br&gt;myGov Account" style="html=1;whiteSpace=wrap;aspect=fixed;shape=isoRectangle;fontSize=12;" parent="r6UPKWucfZyaXqO34wC3-5" vertex="1">
                    <mxGeometry x="120" y="385" width="150" height="90" as="geometry"/>
                </mxCell>
                <mxCell id="ahPHH8DRMbLQYW9S1QM9-25" style="edgeStyle=elbowEdgeStyle;elbow=vertical;html=1;entryX=0;entryY=0.5;entryDx=0;entryDy=0;fontSize=10;exitX=0;exitY=0.5;exitDx=0;exitDy=0;" parent="r6UPKWucfZyaXqO34wC3-5" source="ahPHH8DRMbLQYW9S1QM9-10" target="ahPHH8DRMbLQYW9S1QM9-6" edge="1">
                    <mxGeometry relative="1" as="geometry">
                        <Array as="points">
                            <mxPoint x="25" y="445"/>
                            <mxPoint x="65" y="365"/>
                            <mxPoint x="165" y="275"/>
                        </Array>
                    </mxGeometry>
                </mxCell>
                <mxCell id="ahPHH8DRMbLQYW9S1QM9-10" value="Create myGov account and connect to Digital Identity" style="rounded=1;whiteSpace=wrap;html=1;" parent="r6UPKWucfZyaXqO34wC3-5" vertex="1">
                    <mxGeometry x="32" y="485" width="150" height="60" as="geometry"/>
                </mxCell>
                <mxCell id="ahPHH8DRMbLQYW9S1QM9-6" value="Create Temporary MBUN" style="rounded=1;whiteSpace=wrap;html=1;" parent="r6UPKWucfZyaXqO34wC3-5" vertex="1">
                    <mxGeometry x="93" y="256" width="200" height="45" as="geometry"/>
                </mxCell>
                <mxCell id="ahPHH8DRMbLQYW9S1QM9-23" value="Store MBUN and Confirm Link" style="rounded=1;whiteSpace=wrap;html=1;" parent="r6UPKWucfZyaXqO34wC3-5" vertex="1">
                    <mxGeometry x="95" y="315" width="200" height="45" as="geometry"/>
                </mxCell>
                <mxCell id="r6UPKWucfZyaXqO34wC3-6" value="Digital Identity" style="swimlane;whiteSpace=wrap;html=1;fontSize=15;" parent="vFd7RE8p-yk9YDAPaiBI-1" vertex="1">
                    <mxGeometry x="425" y="25" width="350" height="600" as="geometry"/>
                </mxCell>
                <mxCell id="ahPHH8DRMbLQYW9S1QM9-2" value="is there an &lt;br&gt;existing myGov account&lt;br&gt;&amp;nbsp;linked to the &lt;br&gt;Digital Identity" style="html=1;whiteSpace=wrap;aspect=fixed;shape=isoRectangle;fontSize=12;" parent="r6UPKWucfZyaXqO34wC3-6" vertex="1">
                    <mxGeometry x="153" y="25" width="191.67" height="115" as="geometry"/>
                </mxCell>
                <mxCell id="ahPHH8DRMbLQYW9S1QM9-0" value="Existing MBUN is Passed to Identity Exchange *" style="rounded=1;whiteSpace=wrap;html=1;" parent="r6UPKWucfZyaXqO34wC3-6" vertex="1">
                    <mxGeometry x="23" y="157.5" width="200" height="45" as="geometry"/>
                </mxCell>
                <mxCell id="ahPHH8DRMbLQYW9S1QM9-16" value="* MBUN is not permanently stored at Identity Exchange&lt;br&gt;&lt;br&gt;** Temporary MBUN is created at myGov and passed to IDX, IDX could create a new MBUN but its currently reusing the Temporary MBUN to confirm the link. Identity Exchange and passed back to&amp;nbsp;&lt;br style=&quot;font-size: 10px;&quot;&gt;&lt;br style=&quot;font-size: 10px;&quot;&gt;" style="rounded=1;whiteSpace=wrap;html=1;verticalAlign=top;align=left;dashed=1;fontStyle=2;fontSize=10;" parent="r6UPKWucfZyaXqO34wC3-6" vertex="1">
                    <mxGeometry x="90" y="475" width="235" height="105" as="geometry"/>
                </mxCell>
                <mxCell id="ahPHH8DRMbLQYW9S1QM9-21" value="Receive Temporary MBUN and confirm Member Service Link **" style="rounded=1;whiteSpace=wrap;html=1;" parent="r6UPKWucfZyaXqO34wC3-6" vertex="1">
                    <mxGeometry x="23" y="256" width="200" height="45" as="geometry"/>
                </mxCell>
                <mxCell id="ahPHH8DRMbLQYW9S1QM9-3" style="edgeStyle=none;html=1;fontSize=12;" parent="vFd7RE8p-yk9YDAPaiBI-1" source="ahPHH8DRMbLQYW9S1QM9-2" target="r6UPKWucfZyaXqO34wC3-7" edge="1">
                    <mxGeometry relative="1" as="geometry"/>
                </mxCell>
                <mxCell id="ahPHH8DRMbLQYW9S1QM9-17" value="YES" style="edgeLabel;html=1;align=center;verticalAlign=middle;resizable=0;points=[];fontSize=10;" parent="ahPHH8DRMbLQYW9S1QM9-3" vertex="1" connectable="0">
                    <mxGeometry x="-0.8319" relative="1" as="geometry">
                        <mxPoint x="-68" as="offset"/>
                    </mxGeometry>
                </mxCell>
                <mxCell id="ahPHH8DRMbLQYW9S1QM9-5" style="edgeStyle=none;html=1;fontSize=12;" parent="vFd7RE8p-yk9YDAPaiBI-1" source="ahPHH8DRMbLQYW9S1QM9-1" target="ahPHH8DRMbLQYW9S1QM9-0" edge="1">
                    <mxGeometry relative="1" as="geometry"/>
                </mxCell>
                <mxCell id="ahPHH8DRMbLQYW9S1QM9-18" value="YES" style="edgeLabel;html=1;align=center;verticalAlign=middle;resizable=0;points=[];fontSize=10;" parent="ahPHH8DRMbLQYW9S1QM9-5" vertex="1" connectable="0">
                    <mxGeometry x="-0.4505" y="3" relative="1" as="geometry">
                        <mxPoint as="offset"/>
                    </mxGeometry>
                </mxCell>
                <mxCell id="ahPHH8DRMbLQYW9S1QM9-15" value="NO" style="edgeStyle=elbowEdgeStyle;elbow=vertical;html=1;entryX=0.471;entryY=0.027;entryDx=0;entryDy=0;entryPerimeter=0;fontSize=12;" parent="vFd7RE8p-yk9YDAPaiBI-1" source="ahPHH8DRMbLQYW9S1QM9-2" target="ahPHH8DRMbLQYW9S1QM9-9" edge="1">
                    <mxGeometry x="-0.5607" relative="1" as="geometry">
                        <mxPoint x="810.835" y="215" as="sourcePoint"/>
                        <Array as="points">
                            <mxPoint x="440" y="390"/>
                            <mxPoint x="520" y="380"/>
                        </Array>
                        <mxPoint as="offset"/>
                    </mxGeometry>
                </mxCell>
                <mxCell id="ahPHH8DRMbLQYW9S1QM9-22" style="edgeStyle=elbowEdgeStyle;elbow=vertical;html=1;fontSize=10;" parent="vFd7RE8p-yk9YDAPaiBI-1" source="ahPHH8DRMbLQYW9S1QM9-6" target="ahPHH8DRMbLQYW9S1QM9-21" edge="1">
                    <mxGeometry relative="1" as="geometry"/>
                </mxCell>
                <mxCell id="ahPHH8DRMbLQYW9S1QM9-24" style="edgeStyle=elbowEdgeStyle;html=1;entryX=1;entryY=0.5;entryDx=0;entryDy=0;fontSize=10;exitX=0.5;exitY=1;exitDx=0;exitDy=0;" parent="vFd7RE8p-yk9YDAPaiBI-1" source="ahPHH8DRMbLQYW9S1QM9-21" target="ahPHH8DRMbLQYW9S1QM9-23" edge="1">
                    <mxGeometry relative="1" as="geometry">
                        <Array as="points">
                            <mxPoint x="550" y="350"/>
                        </Array>
                    </mxGeometry>
                </mxCell>
            </root>
        </mxGraphModel>
    </diagram>
</mxfile>